<?xml version="1.0" encoding="UTF-8"?>
<svg id="Layer_1" xmlns="http://www.w3.org/2000/svg" version="1.1" viewBox="0 0 613 287.8">
  <!-- Generator: Adobe Illustrator 29.6.1, SVG Export Plug-In . SVG Version: 2.1.1 Build 9)  -->
  <defs>
    <style>
      .st0 {
        stroke-dasharray: 5 5;
      }

      .st0, .st1, .st2, .st3, .st4, .st5 {
        stroke-miterlimit: 10;
      }

      .st0, .st2 {
        fill: none;
        stroke: #e35a3d;
      }

      .st6 {
        fill: #60819c;
      }

      .st1 {
        stroke: #86cbd1;
      }

      .st1, .st3, .st4, .st5 {
        fill: #fff;
        stroke-width: 2px;
      }

      .st7 {
        fill: #86cbd1;
      }

      .st3 {
        stroke: #60819c;
      }

      .st8 {
        fill: #e35a3d;
      }

      .st4 {
        stroke: #cceaec;
      }

      .st9 {
        fill: #cceaec;
      }

      .st10, .st11 {
        fill: #393c59;
      }

      .st11 {
        font-family: BebasNeueBold, 'Bebas Neue';
        font-size: 15px;
      }

      .st5 {
        stroke: #393c59;
      }
    </style>
  </defs>
  <g>
    <path class="st6" d="M552.2,212.2l5-7h0s0,0,0,0c-.4-5-1.3-9.9-2.8-14.7-2.6-8.6-6.8-16.6-12.4-23.6-5.8-7.3-13-13.2-21.3-17.6s-17.2-7.1-26.4-8c-9-.8-17.9,0-26.5,2.7-8.6,2.6-16.6,6.8-23.6,12.4-7.3,5.8-13.2,13-17.6,21.3l9.7,5.2c15.2-28.4,50.8-39.2,79.2-23.9,18.2,9.8,29.1,27.8,30.7,47h0s0,0,0,0l6.1,6.1Z"/>
    <g>
      <g>
        <path class="st2" d="M62.9,74.7h0s0,0,0,0c.1.8.2,1.6.4,2.5"/>
        <path class="st0" d="M64.4,82.1c.6,2.4,1.4,4.8,2.2,7.2,3.1,8.5,7.8,16.1,13.8,22.8,6.3,6.9,13.8,12.4,22.3,16.3,8.5,3.9,17.6,6.1,26.9,6.4,9,.3,17.8-1.2,26.3-4.3,8.5-3.1,16.1-7.8,22.8-13.8,5.7-5.2,10.4-11.1,14-17.9"/>
        <path class="st2" d="M193.9,96.5c.4-.7.7-1.5,1.1-2.3"/>
      </g>
      <polygon class="st8" points="69.1 79.8 69.1 79.8 69.1 79.8 62.7 74.1 58.1 81.3 58.1 81.3 58.1 81.3 69.1 79.8"/>
    </g>
    <g>
      <g>
        <path class="st2" d="M238.3,144.8h0s0,0,0,0c.1.8.2,1.6.4,2.5"/>
        <path class="st0" d="M239.8,152.1c.6,2.4,1.4,4.8,2.2,7.2,3.1,8.5,7.8,16.1,13.8,22.8,6.3,6.9,13.8,12.4,22.3,16.3,8.5,3.9,17.6,6.1,26.9,6.4,9,.3,17.8-1.2,26.3-4.3,8.5-3.1,16.1-7.8,22.8-13.8,5.7-5.2,10.4-11.1,14-17.9"/>
        <path class="st2" d="M369.3,166.6c.4-.7.7-1.5,1.1-2.3"/>
      </g>
      <polygon class="st8" points="244.5 149.9 244.5 149.9 244.5 149.9 238.1 144.2 233.5 151.4 233.5 151.4 233.5 151.4 244.5 149.9"/>
    </g>
    <g>
      <g>
        <path class="st2" d="M413.3,216.7h0s0,0,0,0c.1.8.2,1.6.4,2.5"/>
        <path class="st0" d="M414.8,224c.6,2.4,1.4,4.8,2.2,7.2,3.1,8.5,7.8,16.1,13.8,22.8,6.3,6.9,13.8,12.4,22.3,16.3,8.5,3.9,17.6,6.1,26.9,6.4,9,.3,17.8-1.2,26.3-4.3,8.5-3.1,16.1-7.8,22.8-13.8,5.7-5.2,10.4-11.1,14-17.9"/>
        <path class="st2" d="M544.3,238.4c.4-.7.7-1.5,1.1-2.3"/>
      </g>
      <polygon class="st8" points="419.5 221.7 419.5 221.7 419.5 221.7 413.1 216 408.5 223.3 408.5 223.3 408.5 223.3 419.5 221.7"/>
    </g>
    <path class="st9" d="M198.5,71.5l5-7h0s0,0,0,0c-.4-5-1.3-9.9-2.8-14.7-2.6-8.6-6.8-16.6-12.4-23.6-5.8-7.3-13-13.2-21.3-17.6s-17.2-7.1-26.4-8c-9-.8-17.9,0-26.5,2.7-8.6,2.6-16.6,6.8-23.6,12.4-7.3,5.8-13.2,13-17.6,21.3l9.7,5.2c15.2-28.4,50.8-39.2,79.2-23.9,18.2,9.8,29.1,27.8,30.7,47h0s0,0,0,0l6.1,6.1Z"/>
    <path class="st7" d="M373.8,144.3l5-7h0s0,0,0,0c-.4-5-1.3-9.9-2.8-14.7-2.6-8.6-6.8-16.6-12.4-23.6-5.8-7.3-13-13.2-21.3-17.6-8.3-4.4-17.2-7.1-26.4-8-9-.8-17.9,0-26.5,2.7-8.6,2.6-16.6,6.8-23.6,12.4-7.3,5.8-13.2,13-17.6,21.3l9.7,5.2c15.2-28.4,50.8-39.2,79.2-23.9,18.2,9.8,29.1,27.8,30.7,47h0s0,0,0,0l6.1,6.1Z"/>
  </g>
  <g>
    <g>
      <path class="st6" d="M436.3,182.7c0-.2,0-.4,0-.5,0-22.9-18.6-41.5-41.5-41.5s-41.5,18.6-41.5,41.5,0,.4,0,.5h82.9Z"/>
      <circle class="st3" cx="394.9" cy="183.2" r="34.8" transform="translate(179 561.2) rotate(-85.2)"/>
    </g>
    <text class="st11" transform="translate(368.6 187.4)"><tspan x="0" y="0">org design</tspan></text>
  </g>
  <g>
    <g>
      <path class="st7" d="M176.7,105.1c0,.2,0,.4,0,.5,0,22.9,18.6,41.5,41.5,41.5s41.5-18.6,41.5-41.5,0-.4,0-.5h-82.9Z"/>
      <circle class="st1" cx="218.2" cy="105.7" r="34.8" transform="translate(95 314.4) rotate(-85.3)"/>
    </g>
    <text class="st11" transform="translate(195.7 110.2)"><tspan x="0" y="0">strategy</tspan></text>
  </g>
  <g>
    <g>
      <path class="st9" d="M82.9,42c0-.2,0-.4,0-.5C82.9,18.6,64.4,0,41.5,0S0,18.6,0,41.5s0,.4,0,.5h82.9Z"/>
      <circle class="st4" cx="41.5" cy="42.5" r="34.8" transform="translate(-4.4 80.3) rotate(-85.2)"/>
    </g>
    <text class="st11" transform="translate(22 46.7)"><tspan x="0" y="0">CULTURE</tspan></text>
  </g>
  <g>
    <g>
      <path class="st10" d="M530.1,245.8c0,.2,0,.4,0,.5,0,22.9,18.6,41.5,41.5,41.5s41.5-18.6,41.5-41.5,0-.4,0-.5h-82.9Z"/>
      <circle class="st5" cx="571.6" cy="246.4" r="34.8" transform="translate(279.2 795.8) rotate(-85.3)"/>
    </g>
    <text class="st11" transform="translate(540.9 250.9)"><tspan x="0" y="0">WORK design</tspan></text>
  </g>
</svg>