<?xml version="1.0" encoding="UTF-8"?>
<svg id="Layer_1" xmlns="http://www.w3.org/2000/svg" version="1.1" viewBox="0 0 850.4 566.9">
  <!-- Generator: Adobe Illustrator 29.6.1, SVG Export Plug-In . SVG Version: 2.1.1 Build 9)  -->
  <defs>
    <style>
      .st0, .st1, .st2, .st3, .st4, .st5, .st6, .st7, .st8, .st9 {
        stroke-miterlimit: 10;
      }

      .st0, .st2, .st3 {
        stroke: #f9e19b;
      }

      .st0, .st4, .st5, .st7 {
        fill: #fff;
        stroke-width: 2px;
      }

      .st10 {
        fill: #ffcd33;
      }

      .st1, .st2, .st3, .st6, .st8, .st9 {
        fill: none;
      }

      .st1, .st2, .st6 {
        stroke-dasharray: 5 5;
      }

      .st1, .st5, .st8 {
        stroke: #ffcd33;
      }

      .st11 {
        fill: #f9e19b;
      }

      .st4 {
        stroke: #f7991c;
      }

      .st6, .st7, .st9 {
        stroke: #f7b768;
      }

      .st12 {
        fill: #f7991c;
      }

      .st13 {
        fill: #f9b869;
      }

      .st14 {
        fill: #393c59;
        font-family: BebasNeueBold, 'Bebas Neue';
        font-size: 15px;
      }
    </style>
  </defs>
  <g>
    <g>
      <g>
        <path class="st9" d="M121.7,97.5h0s0,0,0,0c.1.8.2,1.6.4,2.5"/>
        <path class="st6" d="M123.1,104.8c.6,2.4,1.4,4.8,2.2,7.2,3.1,8.5,7.8,16.1,13.8,22.8,6.3,6.9,13.8,12.4,22.3,16.3,8.5,3.9,17.6,6.1,26.9,6.4,9,.3,17.8-1.2,26.3-4.3,8.5-3.1,16.1-7.8,22.8-13.8,5.7-5.2,10.4-11.1,14-17.9"/>
        <path class="st9" d="M252.7,119.2c.4-.7.7-1.5,1.1-2.3"/>
      </g>
      <polygon class="st13" points="127.8 102.6 127.8 102.6 127.8 102.6 121.4 96.8 116.9 104.1 116.9 104.1 116.9 104.1 127.8 102.6"/>
    </g>
    <g>
      <g>
        <path class="st3" d="M297.1,167.5h0s0,0,0,0c.1.8.2,1.6.4,2.5"/>
        <path class="st2" d="M298.5,174.9c.6,2.4,1.4,4.8,2.2,7.2,3.1,8.5,7.8,16.1,13.8,22.8,6.3,6.9,13.8,12.4,22.3,16.3,8.5,3.9,17.6,6.1,26.9,6.4,9,.3,17.8-1.2,26.3-4.3,8.5-3.1,16.1-7.8,22.8-13.8,5.7-5.2,10.4-11.1,14-17.9"/>
        <path class="st3" d="M428.1,189.3c.4-.7.7-1.5,1.1-2.3"/>
      </g>
      <polygon class="st11" points="303.2 172.6 303.2 172.6 303.2 172.6 296.8 166.9 292.3 174.2 292.3 174.2 292.3 174.2 303.2 172.6"/>
    </g>
    <g>
      <g>
        <path class="st8" d="M472.1,239.4h0s0,0,0,0c.1.8.2,1.6.4,2.5"/>
        <path class="st1" d="M473.5,246.7c.6,2.4,1.4,4.8,2.2,7.2,3.1,8.5,7.8,16.1,13.8,22.8,6.3,6.9,13.8,12.4,22.3,16.3,8.5,3.9,17.6,6.1,26.9,6.4,9,.3,17.8-1.2,26.3-4.3,8.5-3.1,16.1-7.8,22.8-13.8,5.7-5.2,10.4-11.1,14-17.9"/>
        <path class="st8" d="M603.1,261.1c.4-.7.7-1.5,1.1-2.3"/>
      </g>
      <polygon class="st10" points="478.2 244.5 478.2 244.5 478.2 244.5 471.8 238.8 467.3 246 467.3 246 467.3 246 478.2 244.5"/>
    </g>
    <path class="st11" d="M611,235l5-7h0s0,0,0,0c-.4-5-1.3-9.9-2.8-14.7-2.6-8.6-6.8-16.6-12.4-23.6-5.8-7.3-13-13.2-21.3-17.6s-17.2-7.1-26.4-8c-9-.8-17.9,0-26.5,2.7-8.6,2.6-16.6,6.8-23.6,12.4-7.3,5.8-13.2,13-17.6,21.3l9.7,5.2c15.2-28.4,50.8-39.2,79.2-23.9,18.2,9.8,29.1,27.8,30.7,47h0s0,0,0,0l6.1,6.1Z"/>
    <path class="st12" d="M257.2,94.2l5-7h0s0,0,0,0c-.4-5-1.3-9.9-2.8-14.7-2.6-8.6-6.8-16.6-12.4-23.6-5.8-7.3-13-13.2-21.3-17.6s-17.2-7.1-26.4-8c-9-.8-17.9,0-26.5,2.7-8.6,2.6-16.6,6.8-23.6,12.4-7.3,5.8-13.2,13-17.6,21.3l9.7,5.2c15.2-28.4,50.8-39.2,79.2-23.9,18.2,9.8,29.1,27.8,30.7,47h0s0,0,0,0l6.1,6.1Z"/>
    <path class="st13" d="M432.5,167l5-7h0s0,0,0,0c-.4-5-1.3-9.9-2.8-14.7-2.6-8.6-6.8-16.6-12.4-23.6-5.8-7.3-13-13.2-21.3-17.6-8.3-4.4-17.2-7.1-26.4-8-9-.8-17.9,0-26.5,2.7-8.6,2.6-16.6,6.8-23.6,12.4-7.3,5.8-13.2,13-17.6,21.3l9.7,5.2c15.2-28.4,50.8-39.2,79.2-23.9,18.2,9.8,29.1,27.8,30.7,47h0s0,0,0,0l6.1,6.1Z"/>
  </g>
  <g>
    <g>
      <path class="st11" d="M495.1,205.4c0-.2,0-.4,0-.5,0-22.9-18.6-41.5-41.5-41.5s-41.5,18.6-41.5,41.5,0,.4,0,.5h82.9Z"/>
      <circle class="st0" cx="453.6" cy="206" r="34.8" transform="translate(210.1 640.6) rotate(-85.2)"/>
    </g>
    <text class="st14" transform="translate(427.4 210.1)"><tspan x="0" y="0">org design</tspan></text>
  </g>
  <g>
    <g>
      <path class="st13" d="M235.5,127.9c0,.2,0,.4,0,.5,0,22.9,18.6,41.5,41.5,41.5s41.5-18.6,41.5-41.5,0-.4,0-.5h-82.9Z"/>
      <circle class="st7" cx="276.9" cy="128.4" r="34.8" transform="translate(126.2 393.9) rotate(-85.3)"/>
    </g>
    <text class="st14" transform="translate(254.4 132.9)"><tspan x="0" y="0">strategy</tspan></text>
  </g>
  <g>
    <g>
      <path class="st12" d="M141.7,64.7c0-.2,0-.4,0-.5,0-22.9-18.6-41.5-41.5-41.5s-41.5,18.6-41.5,41.5,0,.4,0,.5h82.9Z"/>
      <circle class="st4" cx="100.2" cy="65.3" r="34.8" transform="translate(26.7 159.6) rotate(-85.2)"/>
    </g>
    <text class="st14" transform="translate(80.7 69.4)"><tspan x="0" y="0">CULTURE</tspan></text>
  </g>
  <g>
    <g>
      <path class="st10" d="M588.9,268.6c0,.2,0,.4,0,.5,0,22.9,18.6,41.5,41.5,41.5s41.5-18.6,41.5-41.5,0-.4,0-.5h-82.9Z"/>
      <circle class="st5" cx="630.3" cy="269.1" r="34.8" transform="translate(310.4 875.2) rotate(-85.3)"/>
    </g>
    <text class="st14" transform="translate(599.7 273.6)"><tspan x="0" y="0">WORK design</tspan></text>
  </g>
</svg>