<?xml version="1.0" encoding="UTF-8"?>
<svg id="Layer_1" xmlns="http://www.w3.org/2000/svg" version="1.1" viewBox="0 0 613 287.8">
  <!-- Generator: Adobe Illustrator 29.6.1, SVG Export Plug-In . SVG Version: 2.1.1 Build 9)  -->
  <defs>
    <style>
      .st0 {
        stroke-dasharray: 6 8;
        stroke-linecap: round;
        stroke-width: 3px;
      }

      .st0, .st1 {
        fill: none;
        stroke: #e35a3d;
        stroke-miterlimit: 10;
      }

      .st2 {
        font-family: BebasNeueBold, 'Bebas Neue';
        font-size: 15px;
      }

      .st2, .st3 {
        isolation: isolate;
      }

      .st2, .st4 {
        fill: #393c59;
      }

      .st5 {
        fill: #60819c;
      }

      .st6 {
        stroke: #86cbd1;
      }

      .st6, .st7, .st8, .st9 {
        fill: #fff;
      }

      .st6, .st9 {
        stroke-miterlimit: 10;
        stroke-width: 2px;
      }

      .st10 {
        fill: #86cbd1;
      }

      .st7 {
        stroke: #60819c;
      }

      .st7, .st8 {
        stroke-miterlimit: 10;
        stroke-width: 2px;
      }

      .st11 {
        fill: #e35a3d;
      }

      .st8 {
        stroke: #cceaec;
      }

      .st12 {
        fill: #cceaec;
      }

      .st9 {
        stroke: #393c59;
      }
    </style>
  </defs>
  <g>
    <path class="st10" d="M552.2,212.2l5-7h0c-.4-5-1.3-9.9-2.8-14.7-2.6-8.6-6.8-16.6-12.4-23.6-5.8-7.3-13-13.2-21.3-17.6s-17.2-7.1-26.4-8c-9-.8-17.9,0-26.5,2.7-8.6,2.6-16.6,6.8-23.6,12.4-7.3,5.8-13.2,13-17.6,21.3l9.7,5.2c15.2-28.4,50.8-39.2,79.2-23.9,18.2,9.8,29.1,27.8,30.7,47h0l6.1,6.1h0Z"/>
    <g>
      <g>
        <path class="st1" d="M63.2,73.7h0c0,.8.2,1.6.4,2.5"/>
        <path class="st0" d="M64.7,81.1c.6,2.4,1.4,4.8,2.2,7.2,3.1,8.5,7.8,16.1,13.8,22.8,6.3,6.9,13.8,12.4,22.3,16.3,8.5,3.9,17.6,6.1,26.9,6.4,9,.3,17.8-1.2,26.3-4.3,8.5-3.1,16.1-7.8,22.8-13.8,5.7-5.2,10.4-11.1,14-17.9"/>
        <path class="st1" d="M194.2,95.5c.4-.7.7-1.5,1.1-2.3"/>
      </g>
      <polygon class="st11" points="69.4 78.8 69.4 78.8 69.4 78.8 63 73.1 58.4 80.3 58.4 80.3 58.4 80.3 69.4 78.8"/>
    </g>
    <g>
      <g>
        <path class="st1" d="M241.1,144h0c.1.8.2,1.6.4,2.5"/>
        <path class="st0" d="M242.6,151.3c.6,2.4,1.4,4.8,2.2,7.2,3.1,8.5,7.8,16.1,13.8,22.8,6.3,6.9,13.8,12.4,22.3,16.3,8.5,3.9,17.6,6.1,26.9,6.4,9,.3,17.8-1.2,26.3-4.3s16.1-7.8,22.8-13.8c5.7-5.2,10.4-11.1,14-17.9"/>
        <path class="st1" d="M372.1,165.8c.4-.7.7-1.5,1.1-2.3"/>
      </g>
      <polygon class="st11" points="247.3 149.1 247.3 149.1 247.3 149.1 240.9 143.4 236.3 150.6 236.3 150.6 236.3 150.6 247.3 149.1"/>
    </g>
    <g>
      <g>
        <path class="st1" d="M417.2,214.6h0c.1.8.2,1.6.4,2.5"/>
        <path class="st0" d="M418.7,221.9c.6,2.4,1.4,4.8,2.2,7.2,3.1,8.5,7.8,16.1,13.8,22.8,6.3,6.9,13.8,12.4,22.3,16.3s17.6,6.1,26.9,6.4c9,.3,17.8-1.2,26.3-4.3,8.5-3.1,16.1-7.8,22.8-13.8,5.7-5.2,10.4-11.1,14-17.9"/>
        <path class="st1" d="M548.2,236.3c.4-.7.7-1.5,1.1-2.3"/>
      </g>
      <polygon class="st11" points="423.4 219.6 423.4 219.6 423.4 219.6 417 213.9 412.4 221.2 412.4 221.2 412.4 221.2 423.4 219.6"/>
    </g>
    <path class="st4" d="M198.5,71.5l5-7h0c-.4-5-1.3-9.9-2.8-14.7-2.6-8.6-6.8-16.6-12.4-23.6-5.8-7.3-13-13.2-21.3-17.6s-17.2-7.1-26.4-8c-9-.8-17.9,0-26.5,2.7-8.6,2.6-16.6,6.8-23.6,12.4-7.3,5.8-13.2,13-17.6,21.3l9.7,5.2c15.2-28.4,50.8-39.2,79.2-23.9,18.2,9.8,29.1,27.8,30.7,47h0l6.1,6.1h-.1Z"/>
    <path class="st5" d="M373.8,144.3l5-7h0c-.4-5-1.3-9.9-2.8-14.7-2.6-8.6-6.8-16.6-12.4-23.6-5.8-7.3-13-13.2-21.3-17.6s-17.2-7.1-26.4-8c-9-.8-17.9,0-26.5,2.7-8.6,2.6-16.6,6.8-23.6,12.4-7.3,5.8-13.2,13-17.6,21.3l9.7,5.2c15.2-28.4,50.8-39.2,79.2-23.9,18.2,9.8,29.1,27.8,30.7,47h0l6.1,6.1h-.1Z"/>
  </g>
  <g>
    <g>
      <path class="st10" d="M436.3,182.7v-.5c0-22.9-18.6-41.5-41.5-41.5s-41.5,18.6-41.5,41.5,0,.4,0,.5h83Z"/>
      <circle class="st6" cx="394.6" cy="183" r="34.8" transform="translate(179.2 560.9) rotate(-85.2)"/>
    </g>
    <g class="st3">
      <text class="st2" transform="translate(368.6 187.4)"><tspan x="0" y="0">org design</tspan></text>
    </g>
  </g>
  <g>
    <g>
      <path class="st5" d="M176.7,105.1v.5c0,22.9,18.6,41.5,41.5,41.5s41.5-18.6,41.5-41.5,0-.4,0-.5h-83Z"/>
      <circle class="st7" cx="218.2" cy="105.6" r="34.8"/>
    </g>
    <g class="st3">
      <text class="st2" transform="translate(195.7 110.2)"><tspan x="0" y="0">strategy</tspan></text>
    </g>
  </g>
  <g>
    <g>
      <path class="st4" d="M82.9,42v-.5C82.9,18.6,64.4,0,41.5,0S0,18.6,0,41.5s0,.4,0,.5h82.9Z"/>
      <circle class="st9" cx="41.4" cy="42.5" r="34.8"/>
    </g>
    <g class="st3">
      <text class="st2" transform="translate(22 46.7)"><tspan x="0" y="0">CULTURE</tspan></text>
    </g>
  </g>
  <g>
    <g>
      <path class="st12" d="M530.1,245.8v.5c0,22.9,18.6,41.5,41.5,41.5s41.5-18.6,41.5-41.5,0-.4,0-.5h-83Z"/>
      <circle class="st8" cx="571.6" cy="246.3" r="34.8"/>
    </g>
    <g class="st3">
      <text class="st2" transform="translate(540.9 250.9)"><tspan x="0" y="0">WORK design</tspan></text>
    </g>
  </g>
</svg>